<svg version="1.1" xmlns="http://www.w3.org/2000/svg" viewBox="0 0 610.6799243164063 627.890625" width="1221.3598486328126" height="1255.78125">
  <!-- svg-source:excalidraw -->
  
  <defs>
    <style class="style-fonts">
      @font-face {
        font-family: "Virgil";
        src: url("https://excalidraw.com/Virgil.woff2");
      }
      @font-face {
        font-family: "Cascadia";
        src: url("https://excalidraw.com/Cascadia.woff2");
      }
      @font-face {
        font-family: "Assistant";
        src: url("https://excalidraw.com/Assistant-Regular.woff2");
      }
    </style>
    
  </defs>
  <g stroke-linecap="round" transform="translate(115.265625 10) rotate(0 97.8203125 22)"><path d="M0 0 C46.94 3.13, 91.77 0.85, 195.64 0 M0 0 C50.63 1.2, 101.84 1.3, 195.64 0 M195.64 0 C194.55 9.93, 194.19 22.99, 195.64 44 M195.64 0 C195.63 17.82, 196.35 35.26, 195.64 44 M195.64 44 C122.75 43.58, 44.19 45.83, 0 44 M195.64 44 C148.31 42.34, 101.33 42.32, 0 44 M0 44 C1.6 29.71, 0.03 15.15, 0 0 M0 44 C-0.39 31.4, 0.48 18.89, 0 0" stroke="#1e1e1e" stroke-width="2" fill="none"></path></g><g transform="translate(127.44600677490234 19.5) rotate(0 85.63993072509766 12.5)"><text x="85.63993072509766" y="17.52" font-family="Virgil, Segoe UI Emoji" font-size="20px" fill="#1e1e1e" text-anchor="middle" style="white-space: pre;" direction="ltr" dominant-baseline="alphabetic">User Creates PO</text></g><g stroke-linecap="round" transform="translate(93.640625 133) rotate(0 119.4453125 119.4453125)"><path d="M120 0 C143.48 23.39, 169.12 49.84, 238.89 120 M120 0 C150.86 30.74, 180.28 61.06, 238.89 120 M238.89 120 C197.61 159.53, 161.92 196.44, 120 238.89 M238.89 120 C213.28 147.43, 186.23 173.52, 120 238.89 M120 238.89 C79.96 203.41, 43.38 166.07, 0 120 M120 238.89 C93.97 213.16, 69.21 187.66, 0 120 M0 120 C32.3 87.31, 65.09 53.21, 120 0 M0 120 C45.48 75.51, 89.44 31.82, 120 0" stroke="#1e1e1e" stroke-width="2" fill="none"></path></g><g transform="translate(167.4133071899414 227.22265625) rotate(0 45.449974060058594 25)"><text x="45.449974060058594" y="17.52" font-family="Virgil, Segoe UI Emoji" font-size="20px" fill="#1e1e1e" text-anchor="middle" style="white-space: pre;" direction="ltr" dominant-baseline="alphabetic">Manager </text><text x="45.449974060058594" y="42.519999999999996" font-family="Virgil, Segoe UI Emoji" font-size="20px" fill="#1e1e1e" text-anchor="middle" style="white-space: pre;" direction="ltr" dominant-baseline="alphabetic">Review</text></g><g stroke-linecap="round" transform="translate(10 573.890625) rotate(0 76.578125 22)"><path d="M0 0 C55.54 1.11, 111.84 0.63, 153.16 0 M0 0 C50.56 -0.61, 102.42 -1.23, 153.16 0 M153.16 0 C154.8 9.67, 151.36 22.26, 153.16 44 M153.16 0 C154.41 13.86, 153.68 29.92, 153.16 44 M153.16 44 C110.61 46.35, 68.81 44.14, 0 44 M153.16 44 C107.82 44.09, 61.51 44.78, 0 44 M0 44 C-0.33 29.52, 1.4 14.36, 0 0 M0 44 C-0.31 31.92, 0.76 18.65, 0 0" stroke="#1e1e1e" stroke-width="2" fill="none"></path></g><g transform="translate(24.878173828125 583.390625) rotate(0 61.699951171875 12.5)"><text x="61.699951171875" y="17.52" font-family="Virgil, Segoe UI Emoji" font-size="20px" fill="#1e1e1e" text-anchor="middle" style="white-space: pre;" direction="ltr" dominant-baseline="alphabetic">PO Rejected</text></g><g stroke-linecap="round" transform="translate(212.234375 450.890625) rotate(0 143.46875 22)"><path d="M0 0 C72.19 -0.5, 146.22 0.31, 286.94 0 M0 0 C98.8 -0.54, 196.76 -0.68, 286.94 0 M286.94 0 C285.9 15.96, 287.95 32.84, 286.94 44 M286.94 0 C287.39 15.01, 287 27.18, 286.94 44 M286.94 44 C175.9 44.33, 67.37 44, 0 44 M286.94 44 C201.6 44.93, 116.83 44.34, 0 44 M0 44 C1.49 28.15, -0.09 14.85, 0 0 M0 44 C1.01 31.42, 0.17 19.05, 0 0" stroke="#1e1e1e" stroke-width="2" fill="none"></path></g><g transform="translate(233.2332305908203 460.390625) rotate(0 122.46989440917969 12.5)"><text x="122.46989440917969" y="17.52" font-family="Virgil, Segoe UI Emoji" font-size="20px" fill="#1e1e1e" text-anchor="middle" style="white-space: pre;" direction="ltr" dominant-baseline="alphabetic">Send to Purchasing Dept</text></g><g stroke-linecap="round" transform="translate(327.93359375 573.890625) rotate(0 78.7421875 22)"><path d="M0 0 C51.09 1.05, 101.72 -0.95, 157.48 0 M0 0 C47.61 0.14, 96.78 1.86, 157.48 0 M157.48 0 C157.74 12.5, 157.54 22.75, 157.48 44 M157.48 0 C157.22 9.62, 158.35 20.38, 157.48 44 M157.48 44 C101.64 41.55, 45.79 43.86, 0 44 M157.48 44 C108.31 45.36, 59 45.16, 0 44 M0 44 C-0.47 31.87, -0.42 17.66, 0 0 M0 44 C-0.3 28.31, 0.43 10.16, 0 0" stroke="#1e1e1e" stroke-width="2" fill="none"></path></g><g transform="translate(345.1558380126953 583.390625) rotate(0 61.51994323730469 12.5)"><text x="61.51994323730469" y="17.52" font-family="Virgil, Segoe UI Emoji" font-size="20px" fill="#1e1e1e" text-anchor="middle" style="white-space: pre;" direction="ltr" dominant-baseline="alphabetic">PO Approved</text></g><g stroke-linecap="round"><g transform="translate(196.675 54.5) rotate(0 -15.431000000000012 50.404499999999985)"><path d="M0.59 0.52 C-4.64 6.97, -29.34 22.47, -31.47 39.07 C-33.59 55.67, -15.21 90, -12.16 100.14 M-0.55 -0.25 C-5.39 6.37, -27.04 23.75, -29.07 40.64 C-31.1 57.53, -15.38 91.12, -12.74 101.1" stroke="#1e1e1e" stroke-width="2" fill="none"></path></g><g transform="translate(196.675 54.5) rotate(0 -15.431000000000012 50.404499999999985)"><path d="M-28.67 81.84 C-23.01 86.46, -19.06 93.75, -12.74 101.1 M-28.67 81.84 C-24.37 87.64, -21.59 90.63, -12.74 101.1" stroke="#1e1e1e" stroke-width="2" fill="none"></path></g><g transform="translate(196.675 54.5) rotate(0 -15.431000000000012 50.404499999999985)"><path d="M-12.55 76.11 C-11.65 82.5, -12.47 91.49, -12.74 101.1 M-12.55 76.11 C-12.22 83.19, -13.38 87.57, -12.74 101.1" stroke="#1e1e1e" stroke-width="2" fill="none"></path></g></g><mask></mask><g mask="url(#mask--tClAroeVmYJJDnrtcMXo)" stroke-linecap="round"><g transform="translate(155.19600000000003 314.001) rotate(0 -48.341999999999985 127.28399999999999)"><path d="M-0.6 0.07 C-16.76 16.1, -82.77 54.45, -96.33 96.72 C-109.9 138.99, -84.59 227.18, -81.99 253.68 M1.28 -0.94 C-15.05 15.19, -83.04 55.33, -97.1 97.91 C-111.16 140.48, -85.91 228.55, -83.09 254.53" stroke="#1e1e1e" stroke-width="2" fill="none"></path></g><g transform="translate(155.19600000000003 314.001) rotate(0 -48.341999999999985 127.28399999999999)"><path d="M-95.79 233 C-91.15 241.17, -87.94 247.06, -83.09 254.53 M-95.79 233 C-93.41 237.01, -89.68 242.9, -83.09 254.53" stroke="#1e1e1e" stroke-width="2" fill="none"></path></g><g transform="translate(155.19600000000003 314.001) rotate(0 -48.341999999999985 127.28399999999999)"><path d="M-78.98 229.87 C-80.2 239.06, -82.86 246.03, -83.09 254.53 M-78.98 229.87 C-80.39 234.75, -80.46 241.35, -83.09 254.53" stroke="#1e1e1e" stroke-width="2" fill="none"></path></g></g><mask id="mask--tClAroeVmYJJDnrtcMXo"><rect x="0" y="0" fill="#fff" width="351.38" height="669.569"></rect><rect x="26.84202471923834" y="398.8910000000001" fill="#000" width="63.33995056152344" height="25" opacity="1"></rect></mask><g transform="translate(26.84202471923834 398.8910000000001) rotate(0 78.32859628755668 41.905487296251465)"><text x="31.66997528076172" y="17.52" font-family="Virgil, Segoe UI Emoji" font-size="20px" fill="#1e1e1e" text-anchor="middle" style="white-space: pre;" direction="ltr" dominant-baseline="alphabetic">Reject</text></g><g mask="url(#mask-T-Hiw0w07D_hOcvFsuHEa)" stroke-linecap="round"><g transform="translate(256.827 176.74099999999999) rotate(0 21.055000000000007 -59.646000000000015)"><path d="M0.35 -0.67 C8.36 -14.7, 48.41 -64.55, 47.46 -84.13 C46.51 -103.7, 3.66 -112.1, -5.37 -118.11 M-0.93 1.59 C7.53 -12.32, 50.65 -62.82, 49.84 -83.06 C49.02 -103.29, 3.63 -113.75, -5.82 -119.83" stroke="#1e1e1e" stroke-width="2" fill="none"></path></g><g transform="translate(256.827 176.74099999999999) rotate(0 21.055000000000007 -59.646000000000015)"><path d="M19.15 -118.53 C11.8 -119.84, 5.2 -118.09, -5.82 -119.83 M19.15 -118.53 C9.46 -118.94, 0.23 -119.56, -5.82 -119.83" stroke="#1e1e1e" stroke-width="2" fill="none"></path></g><g transform="translate(256.827 176.74099999999999) rotate(0 21.055000000000007 -59.646000000000015)"><path d="M12.47 -102.79 C6.78 -108.05, 1.85 -110.22, -5.82 -119.83 M12.47 -102.79 C5.54 -109.43, -1.03 -116.32, -5.82 -119.83" stroke="#1e1e1e" stroke-width="2" fill="none"></path></g></g><mask id="mask-T-Hiw0w07D_hOcvFsuHEa"><rect x="0" y="0" fill="#fff" width="411.40700000000004" height="397.033"></rect><rect x="200.80208880615237" y="81" fill="#000" width="208.2398223876953" height="25" opacity="1"></rect></mask><g transform="translate(200.80208880615237 81) rotate(0 78.04153826238797 36.62174408855847)"><text x="104.11991119384766" y="17.52" font-family="Virgil, Segoe UI Emoji" font-size="20px" fill="#1e1e1e" text-anchor="middle" style="white-space: pre;" direction="ltr" dominant-baseline="alphabetic">Send back for editing</text></g><g mask="url(#mask-MEluDeQAxfqD4bhOFKa5x)" stroke-linecap="round"><g transform="translate(214.086 372.8910000000001) rotate(0 42.11650000000003 37.70049999999998)"><path d="M-0.63 -0.89 C-0.76 5.84, -14.58 27.12, -0.39 39.68 C13.8 52.25, 70.19 68.5, 84.51 74.52 M1.23 1.26 C0.97 7.74, -15.31 25.83, -1.01 38.18 C13.28 50.53, 72.53 68.89, 87.02 75.37" stroke="#1e1e1e" stroke-width="2" fill="none"></path></g><g transform="translate(214.086 372.8910000000001) rotate(0 42.11650000000003 37.70049999999998)"><path d="M62.03 75.09 C68.78 76.33, 80.45 74.2, 87.02 75.37 M62.03 75.09 C68.66 75.27, 74.16 74.53, 87.02 75.37" stroke="#1e1e1e" stroke-width="2" fill="none"></path></g><g transform="translate(214.086 372.8910000000001) rotate(0 42.11650000000003 37.70049999999998)"><path d="M68.05 59.08 C72.73 65.57, 82.42 68.7, 87.02 75.37 M68.05 59.08 C73.36 62.9, 77.51 65.78, 87.02 75.37" stroke="#1e1e1e" stroke-width="2" fill="none"></path></g></g><mask id="mask-MEluDeQAxfqD4bhOFKa5x"><rect x="0" y="0" fill="#fff" width="400.819" height="549.292"></rect><rect x="150.85605767822267" y="398.8910000000001" fill="#000" width="124.45988464355469" height="25" opacity="1"></rect></mask><g transform="translate(150.85605767822267 398.8910000000001) rotate(0 103.29989711808469 11.24070290882787)"><text x="62.229942321777344" y="17.52" font-family="Virgil, Segoe UI Emoji" font-size="20px" fill="#1e1e1e" text-anchor="middle" style="white-space: pre;" direction="ltr" dominant-baseline="alphabetic">Edit/Approve</text></g><g mask="url(#mask-7wcAtEdZcqzof3cqwkA_Z)" stroke-linecap="round"><g transform="translate(373.937 495.3910000000001) rotate(0 16.369500000000016 36.35000000000002)"><path d="M0.61 1.18 C6.05 7.68, 26.61 26.14, 32.02 38.11 C37.42 50.09, 32.73 67.24, 33.05 73.05 M-0.53 0.76 C5.36 7.46, 28.85 27.5, 34.35 39.19 C39.84 50.88, 32.98 65.06, 32.44 70.89" stroke="#1e1e1e" stroke-width="2" fill="none"></path></g><g transform="translate(373.937 495.3910000000001) rotate(0 16.369500000000016 36.35000000000002)"><path d="M30.44 54.16 C32.47 57.26, 30.06 62.85, 32.44 70.89 M30.44 54.16 C31.96 59.14, 32 65.98, 32.44 70.89" stroke="#1e1e1e" stroke-width="2" fill="none"></path></g><g transform="translate(373.937 495.3910000000001) rotate(0 16.369500000000016 36.35000000000002)"><path d="M41.66 56.78 C40.94 59.3, 35.76 64.23, 32.44 70.89 M41.66 56.78 C39.47 60.92, 35.82 66.9, 32.44 70.89" stroke="#1e1e1e" stroke-width="2" fill="none"></path></g></g><mask id="mask-7wcAtEdZcqzof3cqwkA_Z"><rect x="0" y="0" fill="#fff" width="506.676" height="669.0910000000001"></rect><rect x="369.71603906249993" y="521.8910000000001" fill="#000" width="73.919921875" height="25" opacity="1"></rect></mask><g transform="translate(369.71603906249993 521.8910000000001) rotate(0 22.192158204664736 10.402157811536483)"><text x="36.9599609375" y="17.52" font-family="Virgil, Segoe UI Emoji" font-size="20px" fill="#1e1e1e" text-anchor="middle" style="white-space: pre;" direction="ltr" dominant-baseline="alphabetic">Approve</text></g><g mask="url(#mask-virDI25rj2wUoaC-nLaqH)" stroke-linecap="round"><g transform="translate(406.221 450.3910000000001) rotate(0 -9.350500000000011 -75.81349999999998)"><path d="M-0.72 -0.89 C14.58 -7.52, 110.56 -13.57, 92.41 -38.65 C74.26 -63.74, -75.93 -132.45, -109.63 -151.4 M1.1 1.26 C16.21 -5.24, 110.1 -15.39, 91.62 -40.59 C73.14 -65.8, -76.34 -131.46, -109.78 -149.96" stroke="#1e1e1e" stroke-width="2" fill="none"></path></g><g transform="translate(406.221 450.3910000000001) rotate(0 -9.350500000000011 -75.81349999999998)"><path d="M-84.93 -147.24 C-95.16 -147.83, -101.83 -147.35, -109.78 -149.96 M-84.93 -147.24 C-92.78 -147.28, -101.1 -150.01, -109.78 -149.96" stroke="#1e1e1e" stroke-width="2" fill="none"></path></g><g transform="translate(406.221 450.3910000000001) rotate(0 -9.350500000000011 -75.81349999999998)"><path d="M-92.5 -131.9 C-100.22 -137.83, -104.23 -142.74, -109.78 -149.96 M-92.5 -131.9 C-98.06 -136.79, -103.97 -144.4, -109.78 -149.96" stroke="#1e1e1e" stroke-width="2" fill="none"></path></g></g><mask id="mask-virDI25rj2wUoaC-nLaqH"><rect x="0" y="0" fill="#fff" width="709.62" height="703.018"></rect><rect x="395.9600756835938" y="386.3910000000001" fill="#000" width="204.7198486328125" height="50" opacity="1"></rect></mask><g transform="translate(395.9600756835937 386.3910000000001) rotate(0 2.7114622301024838 -11.068255928502424)"><text x="102.35992431640625" y="17.52" font-family="Virgil, Segoe UI Emoji" font-size="20px" fill="#1e1e1e" text-anchor="middle" style="white-space: pre;" direction="ltr" dominant-baseline="alphabetic">Send back to </text><text x="102.35992431640625" y="42.519999999999996" font-family="Virgil, Segoe UI Emoji" font-size="20px" fill="#1e1e1e" text-anchor="middle" style="white-space: pre;" direction="ltr" dominant-baseline="alphabetic">Manager for changes</text></g><g mask="url(#mask-zr3bxZ4n_3rHZkgStT1dk)" stroke-linecap="round"><g transform="translate(297.31499999999994 495.3910000000001) rotate(0 -83.6275 37.682000000000016)"><path d="M0.31 0.35 C-16.62 7.03, -74.5 26.85, -102.27 39.23 C-130.03 51.61, -155.45 68.41, -166.26 74.63 M-0.99 -0.52 C-17.91 5.86, -75.01 24.54, -102.6 37.22 C-130.19 49.9, -155.8 69.33, -166.51 75.56" stroke="#1e1e1e" stroke-width="2" fill="none"></path></g><g transform="translate(297.31499999999994 495.3910000000001) rotate(0 -83.6275 37.682000000000016)"><path d="M-151.45 55.6 C-154.63 62.38, -158.44 66.86, -166.51 75.56 M-151.45 55.6 C-155.33 59.63, -157.79 64.66, -166.51 75.56" stroke="#1e1e1e" stroke-width="2" fill="none"></path></g><g transform="translate(297.31499999999994 495.3910000000001) rotate(0 -83.6275 37.682000000000016)"><path d="M-142.15 69.95 C-147.45 73.31, -153.49 74.35, -166.51 75.56 M-142.15 69.95 C-148.25 70.65, -152.94 72.26, -166.51 75.56" stroke="#1e1e1e" stroke-width="2" fill="none"></path></g></g><mask id="mask-zr3bxZ4n_3rHZkgStT1dk"><rect x="0" y="0" fill="#fff" width="565.5699999999999" height="671.7550000000001"></rect><rect x="162.2090247192382" y="521.8910000000001" fill="#000" width="63.33995056152344" height="25" opacity="1"></rect></mask><g transform="translate(162.2090247192382 521.8910000000001) rotate(0 52.005464983404636 11.020095278171823)"><text x="31.66997528076172" y="17.52" font-family="Virgil, Segoe UI Emoji" font-size="20px" fill="#1e1e1e" text-anchor="middle" style="white-space: pre;" direction="ltr" dominant-baseline="alphabetic">Reject</text></g></svg>